PathFileType	4	(X/Y/Z)	C:/Users/opensim2020/Desktop/walking_exp_matlab/subject01_walking14_straight_04.trc	
DataRate	CameraRate	NumFrames	NumMarkers	Units	OrigDataRate	OrigDataStartFrame	OrigNumFrames	
100.00	100.00	5	42	mm	100.00	2107	89	
Frame#	Time	LFHD			RFHD			LBHD			RBHD			C7			T10			CLAV			STRN			RBAK			LSHO			LUPA			LELB			LFRM			LWRA			LWRB			LFIN			RSHO			RUPA			RELB			RFRM			RWRA			RWRB			RFIN			LASI			RASI			LPSI			RPSI			LTHI			LKNE			LTIB			LANK			LHEE			LTOE			RTHI			RKNE			RTIB			RANK			RHEE			RTOE			*39			*40			*41			
		X1	Y1	Z1	X2	Y2	Z2	X3	Y3	Z3	X4	Y4	Z4	X5	Y5	Z5	X6	Y6	Z6	X7	Y7	Z7	X8	Y8	Z8	X9	Y9	Z9	X10	Y10	Z10	X11	Y11	Z11	X12	Y12	Z12	X13	Y13	Z13	X14	Y14	Z14	X15	Y15	Z15	X16	Y16	Z16	X17	Y17	Z17	X18	Y18	Z18	X19	Y19	Z19	X20	Y20	Z20	X21	Y21	Z21	X22	Y22	Z22	X23	Y23	Z23	X24	Y24	Z24	X25	Y25	Z25	X26	Y26	Z26	X27	Y27	Z27	X28	Y28	Z28	X29	Y29	Z29	X30	Y30	Z30	X31	Y31	Z31	X32	Y32	Z32	X33	Y33	Z33	X34	Y34	Z34	X35	Y35	Z35	X36	Y36	Z36	X37	Y37	Z37	X38	Y38	Z38	X39	Y39	Z39	X40	Y40	Z40	X41	Y41	Z41	X42	Y42	Z42	

34	0.330	-1075.29492	216.06924	1670.29346	-1177.76196	165.07570	1670.93933	-1124.61353	326.90308	1639.11523	-1232.24805	275.76373	1638.97473	-1142.06323	371.24826	1442.40710	-1137.03540	420.63052	1149.40125	-1144.24060	228.35448	1370.26965	-1137.55481	192.58095	1214.23999	-1209.60730	437.32870	1250.48499	-986.29510	284.99527	1413.60437	-886.21429	333.28259	1244.62244	-872.65717	365.26959	1094.36401	-857.23651	312.87122	987.33350	-884.11823	220.26062	887.33929	-861.72839	272.97314	871.39001	-851.11035	215.63358	812.65680	-1290.11865	301.18448	1406.69116	-1386.32581	372.14221	1212.95178	-1396.00122	366.38031	1086.32214	-1428.19080	324.22427	972.11578	-1413.71680	226.92906	868.39246	-1448.95532	271.63174	862.29285	-1457.32495	220.91936	794.83270	-1032.89233	247.00282	942.18585	-1248.49622	247.41263	944.53241	-1079.28967	430.81143	951.59253	-1223.98962	431.29730	961.10425	-968.50232	210.15294	613.45276	-979.85742	198.51668	481.01016	-983.47534	332.30859	355.06967	-1041.41003	472.82211	189.80751	-1101.59363	519.18048	190.29362	-1032.04297	390.64377	71.96890	-1303.65942	309.30136	610.06409	-1278.68262	300.20465	450.84924	-1285.36328	360.69711	283.86682	-1235.19897	390.71545	79.10533	-1183.29077	439.22369	43.04228	-1239.33911	250.91693	36.86705	-1159.81628	179.64558	1705.94092	-3101.94238	1973.13391	1023.53510	-3140.58521	2012.52356	1022.09094 
35	0.340	-1075.34338	203.21367	1670.09534	-1177.68420	151.81580	1670.91284	-1125.18506	313.90826	1638.89465	-1232.61133	262.27713	1638.96985	-1143.49646	358.19821	1442.44897	-1138.59180	408.06335	1149.56580	-1144.60962	215.37277	1370.19226	-1137.96423	179.82085	1214.16675	-1212.04724	424.02240	1250.85962	-987.12360	272.92480	1413.63635	-887.30554	323.09116	1245.01062	-874.38385	357.03259	1095.38525	-857.76178	308.70920	986.84766	-883.44385	219.98813	882.73102	-861.02606	273.41681	869.19269	-850.29968	218.58150	807.83911	-1290.59656	286.87665	1406.78064	-1388.41333	356.22363	1213.39087	-1397.89172	349.82455	1086.31299	-1429.05554	303.13037	973.12231	-1412.71973	201.96704	873.64307	-1448.22644	245.80795	865.44415	-1456.00000	192.26212	800.46149	-1034.32556	234.05560	942.73114	-1250.01807	235.72256	944.04559	-1079.73291	418.33804	952.06232	-1224.26453	419.48483	961.41229	-969.39417	192.63583	615.92932	-981.55615	178.30035	483.96884	-985.62494	307.08020	352.22467	-1044.23926	440.96527	181.51413	-1104.98193	486.77258	178.77260	-1032.02576	352.00061	69.10813	-1304.21021	302.73962	610.02454	-1279.35535	296.81879	450.55780	-1285.64954	359.03860	284.29877	-1235.30151	390.60712	79.66302	-1183.09521	438.91681	43.99354	-1239.46082	250.81117	36.77906	-1159.63074	166.54955	1705.89917	-3101.95288	1973.08862	1023.66187	-3140.72339	2012.48376	1022.05585 
36	0.350	-1075.22131	190.48230	1669.81787	-1177.33704	138.53526	1670.67419	-1125.59949	300.78668	1638.53491	-1232.85400	248.77350	1638.81860	-1144.70166	345.12726	1442.33484	-1140.12573	395.53314	1149.52844	-1144.91919	202.30215	1369.90601	-1138.38281	166.95901	1213.91699	-1214.36707	410.79971	1251.06494	-987.80884	260.71313	1413.39038	-888.39459	312.85281	1245.15979	-876.15210	348.66672	1096.08325	-858.34650	304.43805	986.17279	-882.76593	219.74754	878.33453	-860.35156	273.65240	867.23212	-849.32001	221.19655	803.51367	-1291.51794	272.72589	1406.92725	-1390.44043	340.32468	1213.75159	-1399.76135	333.29556	1086.12378	-1429.80432	282.17316	974.22998	-1411.46826	177.36998	879.21423	-1447.69568	220.14241	868.97620	-1454.26831	163.93816	806.19629	-1035.66272	221.80255	942.80646	-1251.39111	224.22668	943.18701	-1080.26624	405.99872	952.29834	-1224.63940	407.52905	961.39587	-970.32336	175.61043	618.30072	-983.32013	158.52118	486.65604	-987.48743	281.75867	348.74478	-1046.85498	408.40701	172.60992	-1107.79541	453.75995	166.40193	-1030.76563	313.86737	66.46281	-1304.67627	295.72696	609.83484	-1280.10730	293.15796	450.55228	-1285.93579	357.30099	284.97104	-1235.19055	390.18869	80.29056	-1182.87537	438.39737	45.01865	-1239.56067	250.56834	36.79155	-1159.41589	153.40407	1705.67810	-3101.95679	1973.22888	1023.51575	-3140.71191	2012.54700	1022.14600 
37	0.360	-1075.11890	177.52499	1669.17175	-1176.99805	125.26031	1670.32532	-1125.88928	287.84055	1637.91809	-1232.94543	235.23430	1638.50806	-1145.80957	332.00204	1442.07373	-1141.49487	382.85068	1149.30505	-1145.15540	189.17511	1369.53638	-1138.67480	154.04927	1213.48535	-1216.52490	397.52707	1251.13831	-988.36359	248.48544	1412.93542	-889.50977	302.56848	1244.88647	-878.05151	340.05563	1096.58569	-858.92383	300.13062	985.48822	-882.24847	219.35291	874.16785	-859.63245	273.70389	865.47211	-848.21960	223.74847	799.71454	-1291.85999	258.49109	1406.74170	-1392.36365	324.47986	1214.05225	-1401.58630	316.55276	1085.89832	-1430.50037	261.32236	975.41327	-1409.80286	152.79807	885.19537	-1446.81482	195.07352	872.61920	-1452.52649	136.03506	812.56262	-1036.51428	208.98445	942.69440	-1252.67566	212.39308	942.41986	-1080.88489	393.66940	952.28455	-1225.13196	395.80084	961.01819	-971.19470	158.92506	620.47241	-985.04895	139.49411	488.94440	-989.24646	256.71896	344.82364	-1049.14917	374.90906	163.08311	-1111.08228	418.52045	153.22467	-1029.94836	273.72043	63.74494	-1305.17065	288.54431	609.41205	-1280.54858	289.06073	450.17267	-1286.12048	355.04959	285.42969	-1235.17041	389.93188	81.18974	-1182.46838	438.00516	46.04214	-1239.66931	250.42177	36.74476	-1158.83325	140.20990	1705.25073	-3101.96558	1973.19031	1023.57092	-3140.77612	2012.46326	1022.06512 
38	0.370	-1074.82092	164.79807	1668.39880	-1176.55896	111.87167	1669.81934	-1126.25208	274.71036	1637.37122	-1232.98108	221.61653	1638.06836	-1146.77563	318.87961	1441.64600	-1142.81116	370.14914	1148.93213	-1145.24731	176.17807	1368.96216	-1138.96606	141.12108	1212.88879	-1218.48792	384.33957	1251.09143	-988.80035	236.18227	1412.23022	-890.55890	292.33844	1244.43335	-879.69275	331.82767	1096.83704	-859.47614	295.74472	984.81940	-881.68793	218.93738	870.17285	-858.92639	273.41992	863.90106	-847.25153	226.21333	796.02686	-1292.21631	244.36612	1406.46973	-1394.30835	308.63339	1214.23608	-1403.56262	300.00793	1085.69763	-1431.21545	240.62610	976.79828	-1408.33032	129.65990	890.64679	-1445.57129	170.34700	876.34882	-1450.56226	108.80675	819.06696	-1037.48962	195.92924	942.67688	-1253.84131	200.70421	941.40222	-1081.43164	381.28867	951.99255	-1225.55542	383.91492	960.34650	-971.99377	142.54411	622.31573	-986.62531	120.48227	490.91574	-990.78174	231.68510	340.54755	-1051.39600	340.53537	153.31209	-1113.66199	383.07666	140.03519	-1029.12500	233.77399	60.83458	-1305.65234	281.22205	608.97864	-1280.99011	284.72159	449.96518	-1286.24414	352.59747	286.01077	-1235.07983	389.41037	81.89932	-1182.37854	437.60059	47.31652	-1239.77832	250.47722	36.63618	-1158.31091	126.95066	1704.67139	-3101.88892	1973.22705	1023.42285	-3140.64453	2012.50610	1022.09961 
